<?xml version="1.0" encoding="UTF-8"?>
<svg width="66px" height="62px" viewBox="0 0 66 62" version="1.1" xmlns="http://www.w3.org/2000/svg" xmlns:xlink="http://www.w3.org/1999/xlink">
    <title>Icons/Health</title>
    <g id="Icons/Health" stroke="none" stroke-width="1" fill="none" fill-rule="evenodd">
        <g id="Group" transform="translate(3.500000, 3.000000)" stroke="#000000" stroke-linecap="round" stroke-linejoin="round" stroke-width="2">
            <g id="heart">
                <polyline id="Path" points="7.25597269 28.243802 19.8123159 28.243802 22.0952874 23.5991359 24.3782589 32.8884681 28.9442019 20.1156362 32.3686591 34.0496347 34.6516306 23.5991359 36.9346021 29.4049685 38.0760879 28.243802 52.9154026 28.243802"></polyline>
                <path d="M29.6814562,49.1666667 L11.0295791,30.1932055 C5.9901403,25.0611799 5.9901403,16.7465664 11.0295791,11.6145409 L11.4176843,11.2197443 C16.4627263,6.09341858 24.6364142,6.09341858 29.6814562,11.2197443 C32.2599157,8.59974175 35.655611,7.31879056 39.0331836,7.37689068 C39.7908047,7.38992308 40.5475139,7.47032942 41.2938834,7.61810969 C42.1674755,7.79107988 43.0269025,8.05635005 43.857047,8.41392018 C45.3423851,9.05370346 46.7339772,9.98897816 47.9452282,11.2197443 L48.3219185,11.6029292 C53.3613573,16.7349548 53.3613573,25.0495682 48.3219185,30.1815938 L29.6814562,49.1666667 Z" id="Path"></path>
            </g>
        </g>
        <circle id="Oval" fill="#CF1643" cx="50" cy="13" r="1"></circle>
    </g>
</svg>