<svg width="22px" height="22px" viewBox="0 0 22 22" version="1.1" xmlns="http://www.w3.org/2000/svg" xmlns:xlink="http://www.w3.org/1999/xlink">
    <defs>
        <path d="M18.4155833,13.00585 C18.4155833,13.0036833 18.4166667,13.0026 18.4166667,13.0004333 C18.4166667,12.9646833 18.3993333,12.9354333 18.3960833,12.9007667 C18.3874167,12.7967667 18.3744167,12.6927667 18.3343333,12.5952667 C18.3050833,12.5216 18.25525,12.4631 18.2108333,12.3981 C18.17725,12.3504333 18.1588333,12.2951833 18.1176667,12.25185 L15.0160833,9.00185 C14.60225,8.56851667 13.9175833,8.55335 13.48425,8.9661 C13.052,9.37885 13.03575,10.0646 13.4485,10.4979333 L14.8026667,11.9171 L8.66666667,11.9171 C8.06866667,11.9171 7.58333333,12.40135 7.58333333,13.0004333 C7.58333333,13.5984333 8.06866667,14.0837667 8.66666667,14.0837667 L14.7181667,14.0837667 L13.3174167,15.4845167 C12.8938333,15.9070167 12.8938333,16.5927667 13.3174167,17.01635 C13.5286667,17.2276 13.806,17.3337667 14.0833333,17.3337667 C14.3606667,17.3337667 14.638,17.2276 14.84925,17.01635 L18.09925,13.76635 C18.1978333,13.6677667 18.278,13.5486 18.3321667,13.4175167 C18.3874167,13.2864333 18.4145,13.1466833 18.4155833,13.00585 M13,21.6666667 C8.22141667,21.6666667 4.33333333,17.7785833 4.33333333,13 C4.33333333,8.22141667 8.22141667,4.33333333 13,4.33333333 C17.7785833,4.33333333 21.6666667,8.22141667 21.6666667,13 C21.6666667,17.7785833 17.7785833,21.6666667 13,21.6666667 M13,2.16666667 C7.0265,2.16666667 2.16666667,7.0265 2.16666667,13 C2.16666667,18.9735 7.0265,23.8333333 13,23.8333333 C18.9735,23.8333333 23.8333333,18.9735 23.8333333,13 C23.8333333,7.0265 18.9735,2.16666667 13,2.16666667" id="path-1"></path>
    </defs>
    <g id="Symbols" stroke="none" stroke-width="1" fill="none" fill-rule="evenodd">
        <g id="UI/Links/ActionLink" transform="translate(-2.000000, -9.000000)">
            <g id="arrow-circle-right" transform="translate(0.000000, 7.000000)">
                <mask id="mask-2" fill="white">
                    <use xlink:href="#path-1"></use>
                </mask>
                <use id="🎨-Icon-Сolor" fill="#00856a" fill-rule="nonzero" xlink:href="#path-1"></use>
            </g>
        </g>
    </g>
</svg>